<svg xmlns="http://www.w3.org/2000/svg" viewBox="0 0 760 170"><style>text { font-family: 'Fira Code', ui-monospace, SFMono-Regular, Menlo, monospace; }</style>
<rect width="760" height="170" rx="16" fill="#10100f"/><rect x="12" y="12" width="736" height="146" rx="10" fill="none" stroke="#2e2a21" stroke-width="1"/>
<text x="380" y="42" fill="#d6b16f" font-size="12" text-anchor="middle" font-weight="700" letter-spacing="3">COMPACTION PIPELINE</text>
<rect x="77" y="72" width="120" height="48" rx="7" fill="#10100f" stroke="#7aa2f7" stroke-opacity="0.94" stroke-width="1.25"/>
<text x="137" y="101" fill="#b9b4a4" font-size="14" text-anchor="middle" font-weight="700">discarded</text>
<line x1="207" y1="96" x2="229" y2="96" stroke="#7aa2f7" stroke-opacity="0.74" stroke-width="1.25"/><path d="M 229 96 l -6 -4 v 8 z" fill="#7aa2f7" fill-opacity="0.74"/>
<rect x="239" y="72" width="120" height="48" rx="7" fill="#10100f" stroke="#bb9af7" stroke-opacity="0.94" stroke-width="1.25"/>
<text x="299" y="101" fill="#b9b4a4" font-size="14" text-anchor="middle" font-weight="700">template</text>
<line x1="369" y1="96" x2="391" y2="96" stroke="#bb9af7" stroke-opacity="0.74" stroke-width="1.25"/><path d="M 391 96 l -6 -4 v 8 z" fill="#bb9af7" fill-opacity="0.74"/>
<rect x="401" y="72" width="120" height="48" rx="7" fill="#10100f" stroke="#f7768e" stroke-opacity="0.94" stroke-width="1.7"/>
<text x="461" y="101" fill="#ffffff" font-size="14" text-anchor="middle" font-weight="700">stream</text>
<line x1="531" y1="96" x2="553" y2="96" stroke="#f7768e" stroke-opacity="0.74" stroke-width="1.25"/><path d="M 553 96 l -6 -4 v 8 z" fill="#f7768e" fill-opacity="0.74"/>
<rect x="563" y="72" width="120" height="48" rx="7" fill="#10100f" stroke="#d6b16f" stroke-opacity="0.94" stroke-width="1.7"/>
<text x="623" y="101" fill="#ffffff" font-size="14" text-anchor="middle" font-weight="700">summary</text>
<text x="380" y="146" fill="#6f6a5e" font-size="9" text-anchor="middle" font-weight="500">kept tail stays raw</text>
</svg>